<svg width="438" height="239" viewBox="0 0 438 239" fill="none" xmlns="http://www.w3.org/2000/svg">
<path d="M160.154 228.732C147.93 247.959 112.154 228.732 112.154 228.732C105.654 205.732 117.154 187.232 112.154 175.732C107.154 164.232 -3.69024 175.701 1.15421 92.7319C5.99866 9.76283 386.154 -4.7681 414.154 2.7319C442.154 10.2319 441.111 25.2731 423.154 45.7319C405.197 66.1907 304.154 122.232 183.154 162.732C165.654 184.732 172.379 209.505 160.154 228.732Z" fill="#A9A1F2" stroke="black" stroke-width="2"/>
<circle cx="40.6543" cy="89.2317" r="19.5" fill="black" stroke="black" stroke-width="2"/>
<circle cx="147.654" cy="67.2317" r="19.5" fill="black" stroke="black" stroke-width="2"/>
<circle cx="200.654" cy="49.2317" r="19.5" fill="black" stroke="black" stroke-width="2"/>
<circle cx="253.654" cy="102.232" r="19.5" fill="black" stroke="black" stroke-width="2"/>
<circle cx="200.654" cy="200.232" r="19.5" fill="black" stroke="black" stroke-width="2"/>
<circle cx="67.6543" cy="200.232" r="19.5" fill="black" stroke="black" stroke-width="2"/>
<circle cx="300.654" cy="80.2317" r="19.5" fill="black" stroke="black" stroke-width="2"/>
<circle cx="344.654" cy="60.2317" r="19.5" fill="white" stroke="black" stroke-width="2"/>
<circle cx="388.654" cy="37.2317" r="19.5" fill="white" stroke="black" stroke-width="2"/>
<circle cx="94.6543" cy="80.2317" r="19.5" fill="black" stroke="black" stroke-width="2"/>
<circle cx="85.1543" cy="125.732" r="17" fill="white" stroke="black" stroke-width="2"/>
<circle cx="299.154" cy="36.7317" r="17" fill="white" stroke="black" stroke-width="2"/>
</svg>
