<svg width="332" height="505" viewBox="0 0 332 505" fill="none" xmlns="http://www.w3.org/2000/svg">
<path d="M193.503 495.504C170.157 511.816 140.503 495.504 140.503 495.504L127.003 421.504C65.0031 340.504 2.00312 311.504 1.5031 210.504C1.00309 109.504 60.9986 2.2698 164.503 1.50438C268.611 0.73451 332.503 101.504 330.003 210.504C327.503 319.504 262.503 337.004 208.003 421.504L193.503 495.504Z" fill="#A9E28D" stroke="black" stroke-width="3"/>
<circle cx="109.503" cy="139.004" r="31" fill="black" stroke="black" stroke-width="3"/>
<circle cx="86.5031" cy="271.004" r="39" fill="black" stroke="black" stroke-width="3"/>
<circle cx="270.503" cy="438.004" r="39" fill="black" stroke="black" stroke-width="3"/>
<circle cx="63.5031" cy="438.004" r="39" fill="black" stroke="black" stroke-width="3"/>
<circle cx="247.503" cy="271.004" r="39" fill="black" stroke="black" stroke-width="3"/>
<circle cx="224.503" cy="139.004" r="31" fill="black" stroke="black" stroke-width="3"/>
<mask id="path-8-outside-1_4011_10" maskUnits="userSpaceOnUse" x="103.5" y="8.5" width="127" height="62" fill="black">
<rect fill="white" x="103.5" y="8.5" width="127" height="62"/>
<path d="M105.636 17.292H129.7V21.836H105.636V17.292ZM118.18 27.084H122.66V68.3H118.18V27.084ZM105.06 52.812C107.108 52.4707 109.455 52.0867 112.1 51.66C114.788 51.1907 117.625 50.7 120.612 50.188C123.599 49.6333 126.585 49.0787 129.572 48.524L129.828 52.748C125.604 53.6013 121.401 54.4547 117.22 55.308C113.081 56.1613 109.369 56.8867 106.084 57.484L105.06 52.812ZM107.684 42.252C107.599 41.9533 107.471 41.548 107.3 41.036C107.129 40.4813 106.937 39.948 106.724 39.436C106.553 38.8813 106.383 38.412 106.212 38.028C106.767 37.9 107.279 37.3667 107.748 36.428C108.217 35.4467 108.708 34.252 109.22 32.844C109.476 32.1613 109.86 31.0307 110.372 29.452C110.884 27.8733 111.417 26.0173 111.972 23.884C112.569 21.708 113.145 19.404 113.7 16.972C114.255 14.54 114.703 12.1293 115.044 9.74L119.716 10.7C119.076 14.1133 118.287 17.548 117.348 21.004C116.409 24.46 115.385 27.788 114.276 30.988C113.167 34.1453 112.036 37.004 110.884 39.564V39.692C110.884 39.692 110.713 39.7773 110.372 39.948C110.073 40.1187 109.711 40.3533 109.284 40.652C108.857 40.908 108.473 41.1853 108.132 41.484C107.833 41.7827 107.684 42.0387 107.684 42.252ZM107.684 42.252V38.284L110.308 37.004H129.124V41.356H112.356C111.247 41.356 110.244 41.4413 109.348 41.612C108.495 41.7827 107.94 41.996 107.684 42.252ZM132.708 13.132H156.58V17.548H132.708V13.132ZM155.108 13.132H156.068L157.028 12.94L160.356 14.604C159.033 17.5907 157.348 20.364 155.3 22.924C153.295 25.484 151.033 27.8307 148.516 29.964C146.041 32.0973 143.439 33.996 140.708 35.66C137.977 37.324 135.204 38.7533 132.388 39.948C132.175 39.564 131.897 39.1373 131.556 38.668C131.215 38.156 130.852 37.6653 130.468 37.196C130.084 36.7267 129.7 36.3427 129.316 36.044C131.919 35.02 134.5 33.7613 137.06 32.268C139.663 30.732 142.116 29.0253 144.42 27.148C146.767 25.228 148.857 23.18 150.692 21.004C152.527 18.7853 153.999 16.4813 155.108 14.092V13.132ZM129.38 62.348H163.428V66.828H129.38V62.348ZM144.484 45.132H149.284V64.076H144.484V45.132ZM133.028 42.252H160.676V46.668H133.028V42.252ZM143.716 30.092L146.404 26.764C148.324 27.5747 150.372 28.5133 152.548 29.58C154.724 30.6467 156.793 31.7347 158.756 32.844C160.761 33.9533 162.404 34.9347 163.684 35.788L160.804 39.628C159.567 38.732 157.967 37.708 156.004 36.556C154.084 35.404 152.036 34.252 149.86 33.1C147.727 31.948 145.679 30.9453 143.716 30.092ZM197.412 20.94H224.548V25.548H197.412V20.94ZM197.732 9.804L202.788 10.7C202.063 14.4547 201.167 18.124 200.1 21.708C199.033 25.2493 197.839 28.556 196.516 31.628C195.236 34.7 193.785 37.388 192.164 39.692C191.865 39.436 191.439 39.1373 190.884 38.796C190.372 38.4547 189.817 38.1133 189.22 37.772C188.665 37.4307 188.153 37.1747 187.684 37.004C189.305 34.828 190.756 32.2893 192.036 29.388C193.316 26.4867 194.425 23.372 195.364 20.044C196.345 16.6733 197.135 13.26 197.732 9.804ZM208.036 23.5H210.404V35.852C210.404 36.9187 210.553 38.348 210.852 40.14C211.151 41.8893 211.663 43.852 212.388 46.028C213.156 48.204 214.223 50.4013 215.588 52.62C216.953 54.8387 218.703 56.9507 220.836 58.956C223.012 60.9613 225.615 62.6893 228.644 64.14C228.345 64.4813 228.004 64.908 227.62 65.42C227.236 65.932 226.852 66.444 226.468 66.956C226.127 67.5107 225.828 67.98 225.572 68.364C222.628 66.8707 220.111 65.0787 218.02 62.988C215.929 60.8547 214.18 58.6573 212.772 56.396C211.364 54.092 210.255 51.8947 209.444 49.804C208.676 47.7133 208.185 45.964 207.972 44.556C207.716 46.0067 207.161 47.7773 206.308 49.868C205.455 51.916 204.239 54.092 202.66 56.396C201.081 58.6573 199.055 60.8547 196.58 62.988C194.148 65.0787 191.225 66.8707 187.812 68.364C187.641 68.0227 187.364 67.596 186.98 67.084C186.639 66.6147 186.276 66.124 185.892 65.612C185.551 65.1427 185.209 64.7587 184.868 64.46C188.324 62.9667 191.268 61.2173 193.7 59.212C196.175 57.164 198.18 55.0307 199.716 52.812C201.252 50.5507 202.447 48.332 203.3 46.156C204.196 43.98 204.793 41.996 205.092 40.204C205.433 38.412 205.604 36.9827 205.604 35.916V23.5H208.036ZM223.076 20.94H223.844L224.676 20.748L228.132 21.644C227.62 23.692 227.065 25.804 226.468 27.98C225.871 30.1133 225.252 32.1613 224.612 34.124C223.972 36.0867 223.353 37.8147 222.756 39.308L218.596 38.156C219.108 36.7907 219.641 35.1907 220.196 33.356C220.751 31.4787 221.263 29.5373 221.732 27.532C222.244 25.5267 222.692 23.6067 223.076 21.772V20.94ZM173.796 15.564H189.092V50.508H173.796V46.028H184.74V20.044H173.796V15.564ZM171.3 15.564H175.652V56.652H171.3V15.564Z"/>
</mask>
<path d="M105.636 17.292H129.7V21.836H105.636V17.292ZM118.18 27.084H122.66V68.3H118.18V27.084ZM105.06 52.812C107.108 52.4707 109.455 52.0867 112.1 51.66C114.788 51.1907 117.625 50.7 120.612 50.188C123.599 49.6333 126.585 49.0787 129.572 48.524L129.828 52.748C125.604 53.6013 121.401 54.4547 117.22 55.308C113.081 56.1613 109.369 56.8867 106.084 57.484L105.06 52.812ZM107.684 42.252C107.599 41.9533 107.471 41.548 107.3 41.036C107.129 40.4813 106.937 39.948 106.724 39.436C106.553 38.8813 106.383 38.412 106.212 38.028C106.767 37.9 107.279 37.3667 107.748 36.428C108.217 35.4467 108.708 34.252 109.22 32.844C109.476 32.1613 109.86 31.0307 110.372 29.452C110.884 27.8733 111.417 26.0173 111.972 23.884C112.569 21.708 113.145 19.404 113.7 16.972C114.255 14.54 114.703 12.1293 115.044 9.74L119.716 10.7C119.076 14.1133 118.287 17.548 117.348 21.004C116.409 24.46 115.385 27.788 114.276 30.988C113.167 34.1453 112.036 37.004 110.884 39.564V39.692C110.884 39.692 110.713 39.7773 110.372 39.948C110.073 40.1187 109.711 40.3533 109.284 40.652C108.857 40.908 108.473 41.1853 108.132 41.484C107.833 41.7827 107.684 42.0387 107.684 42.252ZM107.684 42.252V38.284L110.308 37.004H129.124V41.356H112.356C111.247 41.356 110.244 41.4413 109.348 41.612C108.495 41.7827 107.94 41.996 107.684 42.252ZM132.708 13.132H156.58V17.548H132.708V13.132ZM155.108 13.132H156.068L157.028 12.94L160.356 14.604C159.033 17.5907 157.348 20.364 155.3 22.924C153.295 25.484 151.033 27.8307 148.516 29.964C146.041 32.0973 143.439 33.996 140.708 35.66C137.977 37.324 135.204 38.7533 132.388 39.948C132.175 39.564 131.897 39.1373 131.556 38.668C131.215 38.156 130.852 37.6653 130.468 37.196C130.084 36.7267 129.7 36.3427 129.316 36.044C131.919 35.02 134.5 33.7613 137.06 32.268C139.663 30.732 142.116 29.0253 144.42 27.148C146.767 25.228 148.857 23.18 150.692 21.004C152.527 18.7853 153.999 16.4813 155.108 14.092V13.132ZM129.38 62.348H163.428V66.828H129.38V62.348ZM144.484 45.132H149.284V64.076H144.484V45.132ZM133.028 42.252H160.676V46.668H133.028V42.252ZM143.716 30.092L146.404 26.764C148.324 27.5747 150.372 28.5133 152.548 29.58C154.724 30.6467 156.793 31.7347 158.756 32.844C160.761 33.9533 162.404 34.9347 163.684 35.788L160.804 39.628C159.567 38.732 157.967 37.708 156.004 36.556C154.084 35.404 152.036 34.252 149.86 33.1C147.727 31.948 145.679 30.9453 143.716 30.092ZM197.412 20.94H224.548V25.548H197.412V20.94ZM197.732 9.804L202.788 10.7C202.063 14.4547 201.167 18.124 200.1 21.708C199.033 25.2493 197.839 28.556 196.516 31.628C195.236 34.7 193.785 37.388 192.164 39.692C191.865 39.436 191.439 39.1373 190.884 38.796C190.372 38.4547 189.817 38.1133 189.22 37.772C188.665 37.4307 188.153 37.1747 187.684 37.004C189.305 34.828 190.756 32.2893 192.036 29.388C193.316 26.4867 194.425 23.372 195.364 20.044C196.345 16.6733 197.135 13.26 197.732 9.804ZM208.036 23.5H210.404V35.852C210.404 36.9187 210.553 38.348 210.852 40.14C211.151 41.8893 211.663 43.852 212.388 46.028C213.156 48.204 214.223 50.4013 215.588 52.62C216.953 54.8387 218.703 56.9507 220.836 58.956C223.012 60.9613 225.615 62.6893 228.644 64.14C228.345 64.4813 228.004 64.908 227.62 65.42C227.236 65.932 226.852 66.444 226.468 66.956C226.127 67.5107 225.828 67.98 225.572 68.364C222.628 66.8707 220.111 65.0787 218.02 62.988C215.929 60.8547 214.18 58.6573 212.772 56.396C211.364 54.092 210.255 51.8947 209.444 49.804C208.676 47.7133 208.185 45.964 207.972 44.556C207.716 46.0067 207.161 47.7773 206.308 49.868C205.455 51.916 204.239 54.092 202.66 56.396C201.081 58.6573 199.055 60.8547 196.58 62.988C194.148 65.0787 191.225 66.8707 187.812 68.364C187.641 68.0227 187.364 67.596 186.98 67.084C186.639 66.6147 186.276 66.124 185.892 65.612C185.551 65.1427 185.209 64.7587 184.868 64.46C188.324 62.9667 191.268 61.2173 193.7 59.212C196.175 57.164 198.18 55.0307 199.716 52.812C201.252 50.5507 202.447 48.332 203.3 46.156C204.196 43.98 204.793 41.996 205.092 40.204C205.433 38.412 205.604 36.9827 205.604 35.916V23.5H208.036ZM223.076 20.94H223.844L224.676 20.748L228.132 21.644C227.62 23.692 227.065 25.804 226.468 27.98C225.871 30.1133 225.252 32.1613 224.612 34.124C223.972 36.0867 223.353 37.8147 222.756 39.308L218.596 38.156C219.108 36.7907 219.641 35.1907 220.196 33.356C220.751 31.4787 221.263 29.5373 221.732 27.532C222.244 25.5267 222.692 23.6067 223.076 21.772V20.94ZM173.796 15.564H189.092V50.508H173.796V46.028H184.74V20.044H173.796V15.564ZM171.3 15.564H175.652V56.652H171.3V15.564Z" fill="black"/>
<path d="M105.636 17.292V16.292H104.636V17.292H105.636ZM129.7 17.292H130.7V16.292H129.7V17.292ZM129.7 21.836V22.836H130.7V21.836H129.7ZM105.636 21.836H104.636V22.836H105.636V21.836ZM118.18 27.084V26.084H117.18V27.084H118.18ZM122.66 27.084H123.66V26.084H122.66V27.084ZM122.66 68.3V69.3H123.66V68.3H122.66ZM118.18 68.3H117.18V69.3H118.18V68.3ZM105.06 52.812L104.896 51.8256L103.858 51.9985L104.083 53.0261L105.06 52.812ZM112.1 51.66L112.259 52.6473L112.272 52.6451L112.1 51.66ZM120.612 50.188L120.781 51.1737L120.795 51.1712L120.612 50.188ZM129.572 48.524L130.57 48.4635L130.502 47.3342L129.389 47.5408L129.572 48.524ZM129.828 52.748L130.026 53.7282L130.879 53.5559L130.826 52.6875L129.828 52.748ZM117.22 55.308L117.02 54.3282L117.018 54.3286L117.22 55.308ZM106.084 57.484L105.107 57.6981L105.314 58.6404L106.263 58.4679L106.084 57.484ZM107.684 42.252L106.722 42.5267L108.684 42.252H107.684ZM107.3 41.036L106.344 41.3301L106.348 41.3412L106.351 41.3522L107.3 41.036ZM106.724 39.436L105.768 39.7301L105.782 39.7761L105.801 39.8206L106.724 39.436ZM106.212 38.028L105.987 37.0536L104.806 37.3262L105.298 38.4341L106.212 38.028ZM107.748 36.428L108.642 36.8752L108.646 36.8674L108.65 36.8595L107.748 36.428ZM109.22 32.844L108.284 32.4929L108.28 32.5023L109.22 32.844ZM110.372 29.452L111.323 29.7605V29.7605L110.372 29.452ZM111.972 23.884L111.008 23.6193L111.004 23.6324L111.972 23.884ZM113.7 16.972L114.675 17.1944V17.1944L113.7 16.972ZM115.044 9.74L115.245 8.76046L114.204 8.54657L114.054 9.59858L115.044 9.74ZM119.716 10.7L120.699 10.8843L120.88 9.91828L119.917 9.72046L119.716 10.7ZM114.276 30.988L115.219 31.3195L115.221 31.3155L114.276 30.988ZM110.884 39.564L109.972 39.1536L109.884 39.3494V39.564H110.884ZM110.884 39.692L111.331 40.5864L111.884 40.31V39.692H110.884ZM110.372 39.948L109.925 39.0536L109.9 39.066L109.876 39.0798L110.372 39.948ZM109.284 40.652L109.798 41.5095L109.829 41.4914L109.857 41.4712L109.284 40.652ZM108.132 41.484L107.473 40.7314L107.448 40.7533L107.425 40.7769L108.132 41.484ZM107.684 42.252H106.684V44.6662L108.391 42.9591L107.684 42.252ZM107.684 38.284L107.246 37.3852L106.684 37.6592V38.284H107.684ZM110.308 37.004V36.004H110.077L109.87 36.1052L110.308 37.004ZM129.124 37.004H130.124V36.004H129.124V37.004ZM129.124 41.356V42.356H130.124V41.356H129.124ZM109.348 41.612L109.161 40.6296L109.152 40.6314L109.348 41.612ZM132.708 13.132V12.132H131.708V13.132H132.708ZM156.58 13.132H157.58V12.132H156.58V13.132ZM156.58 17.548V18.548H157.58V17.548H156.58ZM132.708 17.548H131.708V18.548H132.708V17.548ZM155.108 13.132V12.132H154.108V13.132H155.108ZM156.068 13.132V14.132H156.167L156.264 14.1126L156.068 13.132ZM157.028 12.94L157.475 12.0456L157.168 11.8921L156.832 11.9594L157.028 12.94ZM160.356 14.604L161.27 15.0089L161.657 14.1363L160.803 13.7096L160.356 14.604ZM155.3 22.924L154.519 22.2993L154.513 22.3073L155.3 22.924ZM148.516 29.964L147.869 29.2011L147.863 29.2066L148.516 29.964ZM140.708 35.66L140.188 34.8061V34.8061L140.708 35.66ZM132.388 39.948L131.514 40.4336L131.951 41.2198L132.779 40.8686L132.388 39.948ZM131.556 38.668L130.724 39.2227L130.735 39.2397L130.747 39.2562L131.556 38.668ZM130.468 37.196L129.694 37.8292V37.8292L130.468 37.196ZM129.316 36.044L128.95 35.1134L127.317 35.7559L128.702 36.8334L129.316 36.044ZM137.06 32.268L137.564 33.1318L137.568 33.1292L137.06 32.268ZM144.42 27.148L145.052 27.9232L145.053 27.922L144.42 27.148ZM150.692 21.004L151.457 21.6486L151.463 21.6413L150.692 21.004ZM155.108 14.092L156.015 14.5131L156.108 14.3128V14.092H155.108ZM129.38 62.348V61.348H128.38V62.348H129.38ZM163.428 62.348H164.428V61.348H163.428V62.348ZM163.428 66.828V67.828H164.428V66.828H163.428ZM129.38 66.828H128.38V67.828H129.38V66.828ZM144.484 45.132V44.132H143.484V45.132H144.484ZM149.284 45.132H150.284V44.132H149.284V45.132ZM149.284 64.076V65.076H150.284V64.076H149.284ZM144.484 64.076H143.484V65.076H144.484V64.076ZM133.028 42.252V41.252H132.028V42.252H133.028ZM160.676 42.252H161.676V41.252H160.676V42.252ZM160.676 46.668V47.668H161.676V46.668H160.676ZM133.028 46.668H132.028V47.668H133.028V46.668ZM143.716 30.092L142.938 29.4637L142.113 30.4854L143.317 31.0091L143.716 30.092ZM146.404 26.764L146.793 25.8428L146.099 25.5498L145.626 26.1357L146.404 26.764ZM152.548 29.58L152.988 28.6821L152.988 28.6821L152.548 29.58ZM158.756 32.844L158.264 33.7146L158.272 33.719L158.756 32.844ZM163.684 35.788L164.484 36.388L165.118 35.5423L164.239 34.9559L163.684 35.788ZM160.804 39.628L160.217 40.4379L161.014 41.0147L161.604 40.228L160.804 39.628ZM156.004 36.556L155.489 37.4135L155.498 37.4184L156.004 36.556ZM149.86 33.1L149.385 33.9799L149.392 33.9838L149.86 33.1ZM105.636 17.292V18.292H129.7V17.292V16.292H105.636V17.292ZM129.7 17.292H128.7V21.836H129.7H130.7V17.292H129.7ZM129.7 21.836V20.836H105.636V21.836V22.836H129.7V21.836ZM105.636 21.836H106.636V17.292H105.636H104.636V21.836H105.636ZM118.18 27.084V28.084H122.66V27.084V26.084H118.18V27.084ZM122.66 27.084H121.66V68.3H122.66H123.66V27.084H122.66ZM122.66 68.3V67.3H118.18V68.3V69.3H122.66V68.3ZM118.18 68.3H119.18V27.084H118.18H117.18V68.3H118.18ZM105.06 52.812L105.224 53.7984C107.27 53.4574 109.615 53.0737 112.259 52.6472L112.1 51.66L111.941 50.6728C109.294 51.0996 106.946 51.4839 104.896 51.8256L105.06 52.812ZM112.1 51.66L112.272 52.6451C114.959 52.176 117.795 51.6855 120.781 51.1736L120.612 50.188L120.443 49.2024C117.455 49.7145 114.617 50.2054 111.928 50.6749L112.1 51.66ZM120.612 50.188L120.795 51.1712C123.781 50.6165 126.768 50.0619 129.755 49.5072L129.572 48.524L129.389 47.5408C126.403 48.0955 123.416 48.6501 120.429 49.2048L120.612 50.188ZM129.572 48.524L128.574 48.5845L128.83 52.8085L129.828 52.748L130.826 52.6875L130.57 48.4635L129.572 48.524ZM129.828 52.748L129.63 51.7678C125.405 52.6213 121.202 53.4747 117.02 54.3282L117.22 55.308L117.42 56.2878C121.601 55.4346 125.803 54.5814 130.026 53.7282L129.828 52.748ZM117.22 55.308L117.018 54.3286C112.885 55.1807 109.181 55.9045 105.905 56.5001L106.084 57.484L106.263 58.4679C109.558 57.8688 113.278 57.1419 117.422 56.2874L117.22 55.308ZM106.084 57.484L107.061 57.2699L106.037 52.5979L105.06 52.812L104.083 53.0261L105.107 57.6981L106.084 57.484ZM107.684 42.252L108.646 41.9773C108.554 41.6582 108.421 41.2371 108.249 40.7198L107.3 41.036L106.351 41.3522C106.52 41.8589 106.643 42.2485 106.722 42.5267L107.684 42.252ZM107.3 41.036L108.256 40.7419C108.076 40.158 107.873 39.5943 107.647 39.0514L106.724 39.436L105.801 39.8206C106.001 40.3017 106.183 40.8047 106.344 41.3301L107.3 41.036ZM106.724 39.436L107.68 39.1419C107.501 38.5623 107.317 38.0531 107.126 37.6219L106.212 38.028L105.298 38.4341C105.448 38.7709 105.605 39.2003 105.768 39.7301L106.724 39.436ZM106.212 38.028L106.437 39.0024C107.452 38.7682 108.144 37.8713 108.642 36.8752L107.748 36.428L106.854 35.9808C106.413 36.862 106.082 37.0318 105.987 37.0536L106.212 38.028ZM107.748 36.428L108.65 36.8595C109.138 35.8403 109.641 34.6138 110.16 33.1857L109.22 32.844L108.28 32.5023C107.775 33.8902 107.297 35.0531 106.846 35.9965L107.748 36.428ZM109.22 32.844L110.156 33.1951C110.421 32.4895 110.811 31.3402 111.323 29.7605L110.372 29.452L109.421 29.1435C108.909 30.7212 108.531 31.8331 108.284 32.4929L109.22 32.844ZM110.372 29.452L111.323 29.7605C111.843 28.1581 112.382 26.2823 112.94 24.1356L111.972 23.884L111.004 23.6324C110.453 25.7524 109.925 27.5885 109.421 29.1435L110.372 29.452ZM111.972 23.884L112.936 24.1487C113.538 21.9573 114.117 19.6391 114.675 17.1944L113.7 16.972L112.725 16.7496C112.173 19.1689 111.601 21.4587 111.008 23.6193L111.972 23.884ZM113.7 16.972L114.675 17.1944C115.236 14.7365 115.689 12.2988 116.034 9.88142L115.044 9.74L114.054 9.59858C113.717 11.9598 113.274 14.3435 112.725 16.7496L113.7 16.972ZM115.044 9.74L114.843 10.7195L119.515 11.6795L119.716 10.7L119.917 9.72046L115.245 8.76046L115.044 9.74ZM119.716 10.7L118.733 10.5157C118.098 13.9021 117.315 17.3108 116.383 20.7419L117.348 21.004L118.313 21.2661C119.258 17.7852 120.054 14.3246 120.699 10.8843L119.716 10.7ZM117.348 21.004L116.383 20.7419C115.45 24.1771 114.433 27.4832 113.331 30.6605L114.276 30.988L115.221 31.3155C116.338 28.0928 117.369 24.7429 118.313 21.2661L117.348 21.004ZM114.276 30.988L113.333 30.6565C112.231 33.792 111.111 36.6238 109.972 39.1536L110.884 39.564L111.796 39.9744C112.961 37.3842 114.102 34.4986 115.219 31.3195L114.276 30.988ZM110.884 39.564H109.884V39.692H110.884H111.884V39.564H110.884ZM110.884 39.692C110.437 38.7976 110.437 38.7976 110.437 38.7976C110.437 38.7976 110.437 38.7976 110.437 38.7976C110.437 38.7976 110.437 38.7976 110.437 38.7976C110.437 38.7977 110.437 38.7976 110.437 38.7976C110.436 38.7978 110.437 38.7976 110.436 38.7978C110.434 38.7991 110.438 38.7971 110.435 38.7986C110.425 38.8032 110.439 38.7962 110.429 38.8016C110.409 38.8113 110.43 38.8011 110.405 38.8136C110.396 38.8177 110.396 38.8178 110.387 38.8226C110.333 38.8493 110.419 38.8062 110.365 38.8336C110.363 38.8346 110.364 38.8341 110.362 38.8351C110.357 38.8377 110.364 38.8341 110.359 38.8366C110.349 38.8414 110.362 38.835 110.352 38.8398C110.334 38.8487 110.357 38.8375 110.339 38.8466C110.305 38.8637 110.344 38.8438 110.309 38.8616C110.287 38.8722 110.297 38.8672 110.275 38.8786C110.263 38.8846 110.282 38.8747 110.27 38.8808C110.266 38.8827 110.27 38.8812 110.266 38.8831C110.258 38.887 110.264 38.8839 110.256 38.8878C110.24 38.8959 110.253 38.8894 110.237 38.8976C110.154 38.9392 110.279 38.8763 110.195 38.9186C110.184 38.9241 110.184 38.9241 110.172 38.9298C110.096 38.9682 110.226 38.9031 110.149 38.9416C110.148 38.9418 110.148 38.9421 110.147 38.9423C110.147 38.9426 110.146 38.9428 110.146 38.9431C110.144 38.9438 110.144 38.9438 110.143 38.9446C110.132 38.9502 110.148 38.942 110.137 38.9476C110.114 38.959 110.147 38.9425 110.124 38.9538C110.112 38.9601 110.112 38.9601 110.099 38.9666C110.077 38.9775 110.108 38.9622 110.086 38.9731C110.085 38.9734 110.085 38.9737 110.084 38.974C110.083 38.9742 110.083 38.9745 110.082 38.9748C110.082 38.9751 110.081 38.9753 110.081 38.9756C110.08 38.9759 110.08 38.9762 110.079 38.9765C110.073 38.9793 110.081 38.9753 110.076 38.9781C110.075 38.9784 110.075 38.9787 110.074 38.979C110.073 38.9793 110.073 38.9795 110.072 38.9798C110.068 38.9821 110.07 38.9809 110.066 38.9832C110.063 38.9843 110.061 38.9855 110.059 38.9866C110.057 38.9875 110.057 38.9875 110.055 38.9884C110.055 38.9886 110.054 38.9889 110.053 38.9892C110.053 38.9895 110.052 38.9898 110.052 38.9901C110.051 38.9904 110.051 38.9907 110.05 38.991C110.049 38.9912 110.049 38.9915 110.048 38.9918C110.048 38.9921 110.047 38.9924 110.047 38.9927C110.046 38.993 110.045 38.9933 110.045 38.9936C110.003 39.0147 110.08 38.976 110.038 38.9971C110.017 39.0077 110.055 38.9882 110.034 38.9989C110.034 38.9992 110.033 38.9994 110.032 38.9997C110.032 39 110.031 39.0003 110.031 39.0006C110.016 39.0078 110.038 38.997 110.024 39.0042C110.023 39.0045 110.022 39.0048 110.022 39.0051C110.021 39.0054 110.021 39.0057 110.02 39.006C110.019 39.0063 110.019 39.0066 110.018 39.0069C110.017 39.0072 110.017 39.0075 110.016 39.0078C110.007 39.0127 110.011 39.0102 110.002 39.0151C109.997 39.0176 109.999 39.0164 109.994 39.0188C109.989 39.0213 109.992 39.0201 109.987 39.0226C109.977 39.0276 109.989 39.0213 109.979 39.0263C109.934 39.0491 110.017 39.0073 109.972 39.0301C109.961 39.0352 109.967 39.0327 109.956 39.0378C109.915 39.0586 109.99 39.021 109.949 39.0417C109.938 39.0469 109.951 39.0404 109.941 39.0456C109.94 39.046 109.939 39.0463 109.939 39.0466C109.938 39.0469 109.937 39.0473 109.937 39.0476C109.913 39.0595 109.957 39.0377 109.933 39.0496C109.885 39.0735 109.973 39.0296 109.925 39.0536L110.372 39.948L110.819 40.8424C110.904 40.7998 110.797 40.8534 110.881 40.8114C110.959 40.7726 110.833 40.8353 110.911 40.7967C110.93 40.787 110.906 40.7991 110.925 40.7895C110.963 40.7708 110.902 40.8011 110.939 40.7824C110.947 40.7787 110.946 40.7792 110.953 40.7755C111.026 40.7388 110.893 40.8053 110.967 40.7687C110.967 40.7685 110.993 40.7554 110.993 40.7554C111.019 40.7424 110.97 40.7668 110.996 40.7538C110.997 40.7535 110.998 40.7533 110.998 40.753C110.999 40.7527 110.999 40.7525 111 40.7522C111.025 40.7393 110.98 40.7619 111.006 40.749C111.023 40.7406 111.002 40.751 111.019 40.7427C111.044 40.7302 111 40.7521 111.025 40.7396C111.033 40.7355 111.023 40.7406 111.031 40.7365C111.032 40.7362 111.032 40.736 111.033 40.7357C111.033 40.7355 111.034 40.7352 111.034 40.735C111.05 40.7269 111.021 40.7415 111.037 40.7334C111.078 40.7132 111.003 40.7506 111.043 40.7304C111.059 40.7225 111.033 40.7354 111.049 40.7274C111.05 40.7272 111.05 40.7269 111.051 40.7267C111.051 40.7265 111.052 40.7262 111.052 40.726C111.06 40.722 111.047 40.7284 111.055 40.7245C111.079 40.7127 111.037 40.7333 111.061 40.7216C111.061 40.7216 111.067 40.7187 111.067 40.7187C111.074 40.7148 111.062 40.7211 111.07 40.7172C111.07 40.7172 111.072 40.7158 111.072 40.7158C111.125 40.6893 111.025 40.7395 111.078 40.713C111.078 40.713 111.084 40.7102 111.084 40.7102C111.084 40.71 111.085 40.7097 111.085 40.7095C111.086 40.7093 111.086 40.709 111.086 40.7088C111.108 40.6978 111.067 40.7184 111.089 40.7074C111.097 40.7038 111.093 40.7056 111.1 40.702C111.104 40.7002 111.099 40.7024 111.103 40.7006C111.113 40.6953 111.095 40.7046 111.105 40.6993C111.113 40.6958 111.104 40.7002 111.111 40.6967C111.179 40.6625 111.053 40.7257 111.121 40.6915C111.128 40.6881 111.125 40.6898 111.131 40.6864C111.158 40.6731 111.115 40.6948 111.141 40.6815C111.192 40.6561 111.1 40.702 111.151 40.6767C111.176 40.664 111.144 40.6799 111.169 40.6674C111.213 40.6454 111.161 40.6718 111.203 40.6504C111.288 40.6078 111.179 40.6623 111.259 40.6224C111.307 40.5984 111.257 40.6238 111.299 40.6024C111.315 40.5944 111.287 40.6084 111.303 40.6005C111.322 40.5911 111.288 40.608 111.307 40.5987C111.335 40.5847 111.286 40.6093 111.313 40.5954C111.368 40.5681 111.27 40.6171 111.323 40.5904C111.329 40.5878 111.322 40.5912 111.327 40.5887C111.333 40.5853 111.321 40.5913 111.328 40.588C111.33 40.5872 111.327 40.5885 111.329 40.5877C111.331 40.5863 111.327 40.5888 111.329 40.5874C111.332 40.5861 111.328 40.5883 111.33 40.587C111.331 40.5868 111.33 40.5871 111.33 40.5869C111.33 40.5869 111.33 40.5869 111.33 40.5869C111.33 40.5868 111.33 40.5868 111.33 40.5868C111.331 40.5864 111.33 40.5872 111.331 40.5867C111.331 40.5864 111.33 40.587 111.331 40.5867C111.331 40.5865 111.331 40.5867 111.331 40.5866C111.332 40.5861 111.33 40.587 111.331 40.5865C111.331 40.5863 111.331 40.5866 111.331 40.5865C111.331 40.5864 111.331 40.5865 111.331 40.5864C111.331 40.5864 111.331 40.5864 111.331 40.5864C111.331 40.5864 111.331 40.5864 111.331 40.5864C111.331 40.5864 111.331 40.5864 111.331 40.5864C111.331 40.5864 111.331 40.5864 110.884 39.692ZM110.372 39.948L109.876 39.0798C109.541 39.2711 109.151 39.5245 108.711 39.8328L109.284 40.652L109.857 41.4712C110.27 41.1822 110.606 40.9662 110.868 40.8162L110.372 39.948ZM109.284 40.652L108.77 39.7945C108.297 40.0782 107.864 40.39 107.473 40.7314L108.132 41.484L108.791 42.2366C109.083 41.9807 109.418 41.7378 109.798 41.5095L109.284 40.652ZM108.132 41.484L107.425 40.7769C107.099 41.1028 106.684 41.6105 106.684 42.252H107.684H108.684C108.684 42.3782 108.641 42.4357 108.66 42.4039C108.667 42.3912 108.684 42.366 108.714 42.3283C108.744 42.291 108.785 42.2452 108.839 42.1911L108.132 41.484ZM107.684 42.252H108.684V38.284H107.684H106.684V42.252H107.684ZM107.684 38.284L108.122 39.1828L110.746 37.9028L110.308 37.004L109.87 36.1052L107.246 37.3852L107.684 38.284ZM110.308 37.004V38.004H129.124V37.004V36.004H110.308V37.004ZM129.124 37.004H128.124V41.356H129.124H130.124V37.004H129.124ZM129.124 41.356V40.356H112.356V41.356V42.356H129.124V41.356ZM112.356 41.356V40.356C111.197 40.356 110.13 40.4451 109.161 40.6297L109.348 41.612L109.535 42.5943C110.358 42.4376 111.297 42.356 112.356 42.356V41.356ZM109.348 41.612L109.152 40.6314C108.693 40.7233 108.281 40.8327 107.933 40.9667C107.599 41.0953 107.247 41.2744 106.977 41.5449L107.684 42.252L108.391 42.9591C108.377 42.9736 108.431 42.918 108.651 42.8333C108.857 42.754 109.15 42.6714 109.544 42.5926L109.348 41.612ZM132.708 13.132V14.132H156.58V13.132V12.132H132.708V13.132ZM156.58 13.132H155.58V17.548H156.58H157.58V13.132H156.58ZM156.58 17.548V16.548H132.708V17.548V18.548H156.58V17.548ZM132.708 17.548H133.708V13.132H132.708H131.708V17.548H132.708ZM155.108 13.132V14.132H156.068V13.132V12.132H155.108V13.132ZM156.068 13.132L156.264 14.1126L157.224 13.9206L157.028 12.94L156.832 11.9594L155.872 12.1514L156.068 13.132ZM157.028 12.94L156.581 13.8344L159.909 15.4984L160.356 14.604L160.803 13.7096L157.475 12.0456L157.028 12.94ZM160.356 14.604L159.442 14.1991C158.154 17.1068 156.514 19.8063 154.519 22.2993L155.3 22.924L156.081 23.5487C158.182 20.9217 159.913 18.0746 161.27 15.0089L160.356 14.604ZM155.3 22.924L154.513 22.3073C152.55 24.8132 150.336 27.111 147.869 29.2011L148.516 29.964L149.163 30.7269C151.731 28.5504 154.039 26.1548 156.087 23.5407L155.3 22.924ZM148.516 29.964L147.863 29.2066C145.429 31.3049 142.871 33.1712 140.188 34.8061L140.708 35.66L141.228 36.5139C144.007 34.8208 146.654 32.8897 149.169 30.7214L148.516 29.964ZM140.708 35.66L140.188 34.8061C137.497 36.4459 134.767 37.8526 131.997 39.0274L132.388 39.948L132.779 40.8686C135.641 39.6541 138.458 38.2021 141.228 36.5139L140.708 35.66ZM132.388 39.948L133.262 39.4624C133.024 39.0337 132.723 38.5722 132.365 38.0798L131.556 38.668L130.747 39.2562C131.072 39.7024 131.325 40.0943 131.514 40.4336L132.388 39.948ZM131.556 38.668L132.388 38.1133C132.029 37.5746 131.647 37.0577 131.242 36.5628L130.468 37.196L129.694 37.8292C130.057 38.273 130.4 38.7374 130.724 39.2227L131.556 38.668ZM130.468 37.196L131.242 36.5628C130.822 36.0491 130.385 35.6088 129.93 35.2546L129.316 36.044L128.702 36.8334C129.015 37.0765 129.346 37.4042 129.694 37.8292L130.468 37.196ZM129.316 36.044L129.682 36.9746C132.335 35.9308 134.962 34.6493 137.564 33.1318L137.06 32.268L136.556 31.4042C134.038 32.8733 131.502 34.1092 128.95 35.1134L129.316 36.044ZM137.06 32.268L137.568 33.1292C140.213 31.5681 142.708 29.8328 145.052 27.9232L144.42 27.148L143.788 26.3728C141.524 28.2178 139.112 29.8959 136.552 31.4068L137.06 32.268ZM144.42 27.148L145.053 27.922C147.444 25.9655 149.58 23.8746 151.457 21.6486L150.692 21.004L149.927 20.3594C148.135 22.4854 146.089 24.4905 143.787 26.374L144.42 27.148ZM150.692 21.004L151.463 21.6413C153.347 19.3627 154.866 16.9868 156.015 14.5131L155.108 14.092L154.201 13.6709C153.131 15.9758 151.707 18.2079 149.921 20.3667L150.692 21.004ZM155.108 14.092H156.108V13.132H155.108H154.108V14.092H155.108ZM129.38 62.348V63.348H163.428V62.348V61.348H129.38V62.348ZM163.428 62.348H162.428V66.828H163.428H164.428V62.348H163.428ZM163.428 66.828V65.828H129.38V66.828V67.828H163.428V66.828ZM129.38 66.828H130.38V62.348H129.38H128.38V66.828H129.38ZM144.484 45.132V46.132H149.284V45.132V44.132H144.484V45.132ZM149.284 45.132H148.284V64.076H149.284H150.284V45.132H149.284ZM149.284 64.076V63.076H144.484V64.076V65.076H149.284V64.076ZM144.484 64.076H145.484V45.132H144.484H143.484V64.076H144.484ZM133.028 42.252V43.252H160.676V42.252V41.252H133.028V42.252ZM160.676 42.252H159.676V46.668H160.676H161.676V42.252H160.676ZM160.676 46.668V45.668H133.028V46.668V47.668H160.676V46.668ZM133.028 46.668H134.028V42.252H133.028H132.028V46.668H133.028ZM143.716 30.092L144.494 30.7203L147.182 27.3923L146.404 26.764L145.626 26.1357L142.938 29.4637L143.716 30.092ZM146.404 26.764L146.015 27.6852C147.915 28.4876 149.946 29.4182 152.108 30.4779L152.548 29.58L152.988 28.6821C150.798 27.6084 148.733 26.6618 146.793 25.8428L146.404 26.764ZM152.548 29.58L152.108 30.4779C154.268 31.5366 156.32 32.6155 158.264 33.7146L158.756 32.844L159.248 31.9734C157.267 30.8538 155.18 29.7567 152.988 28.6821L152.548 29.58ZM158.756 32.844L158.272 33.719C160.264 34.8208 161.88 35.7874 163.129 36.62L163.684 35.788L164.239 34.9559C162.928 34.0819 161.259 33.0859 159.24 31.969L158.756 32.844ZM163.684 35.788L162.884 35.188L160.004 39.028L160.804 39.628L161.604 40.228L164.484 36.388L163.684 35.788ZM160.804 39.628L161.391 38.8181C160.118 37.8966 158.489 36.8548 156.51 35.6936L156.004 36.556L155.498 37.4184C157.445 38.5612 159.015 39.5674 160.217 40.4379L160.804 39.628ZM156.004 36.556L156.518 35.6985C154.582 34.5365 152.518 33.3757 150.328 32.2162L149.86 33.1L149.392 33.9838C151.554 35.1283 153.586 36.2715 155.49 37.4135L156.004 36.556ZM149.86 33.1L150.335 32.2201C148.18 31.0564 146.107 30.0409 144.115 29.1749L143.716 30.092L143.317 31.0091C145.251 31.8497 147.273 32.8396 149.385 33.9799L149.86 33.1ZM197.412 20.94V19.94H196.412V20.94H197.412ZM224.548 20.94H225.548V19.94H224.548V20.94ZM224.548 25.548V26.548H225.548V25.548H224.548ZM197.412 25.548H196.412V26.548H197.412V25.548ZM197.732 9.804L197.906 8.81934L196.918 8.6441L196.747 9.63368L197.732 9.804ZM202.788 10.7L203.77 10.8897L203.962 9.89255L202.962 9.71534L202.788 10.7ZM200.1 21.708L201.058 21.9964L201.058 21.9932L200.1 21.708ZM196.516 31.628L195.597 31.2325L195.593 31.2434L196.516 31.628ZM192.164 39.692L191.513 40.4513L192.349 41.1673L192.982 40.2675L192.164 39.692ZM190.884 38.796L190.329 39.6281L190.344 39.6381L190.36 39.6477L190.884 38.796ZM189.22 37.772L188.696 38.6237L188.71 38.6322L188.724 38.6402L189.22 37.772ZM187.684 37.004L186.882 36.4065L186.079 37.4844L187.342 37.9438L187.684 37.004ZM192.036 29.388L191.121 28.9844V28.9844L192.036 29.388ZM195.364 20.044L194.404 19.7645L194.402 19.7725L195.364 20.044ZM210.404 23.5H211.404V22.5H210.404V23.5ZM210.852 40.14L209.866 40.3044L209.866 40.3083L210.852 40.14ZM212.388 46.028L211.439 46.3442L211.442 46.3525L211.445 46.3608L212.388 46.028ZM215.588 52.62L214.736 53.1441V53.1441L215.588 52.62ZM220.836 58.956L220.151 59.6847L220.158 59.6914L220.836 58.956ZM228.644 64.14L229.397 64.7985L230.264 63.8071L229.076 63.2381L228.644 64.14ZM227.62 65.42L226.82 64.82V64.82L227.62 65.42ZM226.468 66.956L225.668 66.356L225.64 66.3928L225.616 66.4319L226.468 66.956ZM225.572 68.364L225.12 69.2558L225.912 69.6575L226.404 68.9187L225.572 68.364ZM218.02 62.988L217.306 63.688L217.313 63.6951L218.02 62.988ZM212.772 56.396L211.919 56.9175L211.923 56.9246L212.772 56.396ZM209.444 49.804L208.505 50.1488L208.508 50.1572L208.512 50.1655L209.444 49.804ZM207.972 44.556L208.961 44.4062L206.987 44.3822L207.972 44.556ZM206.308 49.868L207.231 50.2526L207.234 50.2459L206.308 49.868ZM202.66 56.396L203.48 56.9684L203.485 56.9612L202.66 56.396ZM196.58 62.988L197.232 63.7463L197.233 63.7454L196.58 62.988ZM187.812 68.364L186.918 68.8112L187.342 69.6609L188.213 69.2802L187.812 68.364ZM186.98 67.084L186.171 67.6722L186.176 67.6781L186.18 67.684L186.98 67.084ZM185.892 65.612L185.083 66.2002L185.088 66.2061L185.092 66.212L185.892 65.612ZM184.868 64.46L184.471 63.542L183.018 64.17L184.209 65.2126L184.868 64.46ZM193.7 59.212L194.336 59.9835L194.338 59.9824L193.7 59.212ZM199.716 52.812L200.538 53.3812L200.543 53.3739L199.716 52.812ZM203.3 46.156L202.375 45.7752L202.372 45.7831L202.369 45.7909L203.3 46.156ZM205.092 40.204L204.11 40.0169L204.108 40.0282L204.106 40.0396L205.092 40.204ZM205.604 23.5V22.5H204.604V23.5H205.604ZM223.076 20.94V19.94H222.076V20.94H223.076ZM223.844 20.94V21.94H223.958L224.069 21.9144L223.844 20.94ZM224.676 20.748L224.927 19.78L224.69 19.7185L224.451 19.7736L224.676 20.748ZM228.132 21.644L229.102 21.8865L229.343 20.9248L228.383 20.676L228.132 21.644ZM226.468 27.98L227.431 28.2496L227.432 28.2447L226.468 27.98ZM224.612 34.124L223.661 33.814V33.814L224.612 34.124ZM222.756 39.308L222.489 40.2717L223.352 40.5107L223.684 39.6794L222.756 39.308ZM218.596 38.156L217.66 37.8049L217.276 38.8281L218.329 39.1197L218.596 38.156ZM220.196 33.356L221.153 33.6454L221.155 33.6393L220.196 33.356ZM221.732 27.532L220.763 27.2846L220.761 27.2943L220.758 27.3041L221.732 27.532ZM223.076 21.772L224.055 21.9769L224.076 21.8755V21.772H223.076ZM173.796 15.564V14.564H172.796V15.564H173.796ZM189.092 15.564H190.092V14.564H189.092V15.564ZM189.092 50.508V51.508H190.092V50.508H189.092ZM173.796 50.508H172.796V51.508H173.796V50.508ZM173.796 46.028V45.028H172.796V46.028H173.796ZM184.74 46.028V47.028H185.74V46.028H184.74ZM184.74 20.044H185.74V19.044H184.74V20.044ZM173.796 20.044H172.796V21.044H173.796V20.044ZM171.3 15.564V14.564H170.3V15.564H171.3ZM175.652 15.564H176.652V14.564H175.652V15.564ZM175.652 56.652V57.652H176.652V56.652H175.652ZM171.3 56.652H170.3V57.652H171.3V56.652ZM197.412 20.94V21.94H224.548V20.94V19.94H197.412V20.94ZM224.548 20.94H223.548V25.548H224.548H225.548V20.94H224.548ZM224.548 25.548V24.548H197.412V25.548V26.548H224.548V25.548ZM197.412 25.548H198.412V20.94H197.412H196.412V25.548H197.412ZM197.732 9.804L197.558 10.7887L202.614 11.6847L202.788 10.7L202.962 9.71534L197.906 8.81934L197.732 9.804ZM202.788 10.7L201.806 10.5103C201.087 14.2335 200.199 17.8709 199.142 21.4227L200.1 21.708L201.058 21.9932C202.135 18.3771 203.038 14.6758 203.77 10.8897L202.788 10.7ZM200.1 21.708L199.142 21.4196C198.086 24.9283 196.904 28.1989 195.598 31.2325L196.516 31.628L197.434 32.0235C198.774 28.9131 199.981 25.5704 201.058 21.9964L200.1 21.708ZM196.516 31.628L195.593 31.2434C194.336 34.2599 192.919 36.8817 191.346 39.1165L192.164 39.692L192.982 40.2675C194.652 37.8943 196.136 35.1401 197.439 32.0126L196.516 31.628ZM192.164 39.692L192.815 38.9327C192.459 38.6279 191.983 38.2978 191.408 37.9443L190.884 38.796L190.36 39.6477C190.895 39.9768 191.272 40.2441 191.513 40.4513L192.164 39.692ZM190.884 38.796L191.439 37.964C190.906 37.6085 190.331 37.2552 189.716 36.9038L189.22 37.772L188.724 38.6402C189.304 38.9715 189.838 39.3008 190.329 39.6281L190.884 38.796ZM189.22 37.772L189.744 36.9203C189.148 36.5536 188.574 36.2637 188.026 36.0642L187.684 37.004L187.342 37.9438C187.732 38.0856 188.183 38.3077 188.696 38.6237L189.22 37.772ZM187.684 37.004L188.486 37.6015C190.159 35.3562 191.646 32.7504 192.951 29.7916L192.036 29.388L191.121 28.9844C189.866 31.8282 188.452 34.2998 186.882 36.4065L187.684 37.004ZM192.036 29.388L192.951 29.7916C194.251 26.8438 195.376 23.6846 196.326 20.3155L195.364 20.044L194.402 19.7725C193.474 23.0594 192.381 26.1296 191.121 28.9844L192.036 29.388ZM195.364 20.044L196.324 20.3235C197.316 16.917 198.114 13.4672 198.717 9.97431L197.732 9.804L196.747 9.63368C196.156 13.0528 195.375 16.4297 194.404 19.7645L195.364 20.044ZM208.036 23.5V24.5H210.404V23.5V22.5H208.036V23.5ZM210.404 23.5H209.404V35.852H210.404H211.404V23.5H210.404ZM210.404 35.852H209.404C209.404 36.9988 209.563 38.4902 209.866 40.3044L210.852 40.14L211.838 39.9756C211.543 38.2058 211.404 36.8385 211.404 35.852H210.404ZM210.852 40.14L209.866 40.3083C210.176 42.1199 210.702 44.1331 211.439 46.3442L212.388 46.028L213.337 45.7118C212.623 43.5709 212.126 41.6588 211.838 39.9717L210.852 40.14ZM212.388 46.028L211.445 46.3608C212.239 48.6115 213.339 50.8727 214.736 53.1441L215.588 52.62L216.44 52.0959C215.107 49.93 214.073 47.7964 213.331 45.6952L212.388 46.028ZM215.588 52.62L214.736 53.1441C216.153 55.4466 217.961 57.6261 220.151 59.6846L220.836 58.956L221.521 58.2274C219.444 56.2752 217.753 54.2307 216.44 52.0959L215.588 52.62ZM220.836 58.956L220.158 59.6914C222.417 61.7725 225.105 63.554 228.212 65.0419L228.644 64.14L229.076 63.2381C226.124 61.8247 223.607 60.1501 221.514 58.2206L220.836 58.956ZM228.644 64.14L227.891 63.4815C227.571 63.8476 227.213 64.2954 226.82 64.82L227.62 65.42L228.42 66.02C228.795 65.5206 229.12 65.115 229.397 64.7985L228.644 64.14ZM227.62 65.42L226.82 64.82C226.436 65.332 226.052 65.844 225.668 66.356L226.468 66.956L227.268 67.556C227.652 67.044 228.036 66.532 228.42 66.02L227.62 65.42ZM226.468 66.956L225.616 66.4319C225.279 66.9801 224.987 67.4385 224.74 67.8093L225.572 68.364L226.404 68.9187C226.669 68.5215 226.974 68.0413 227.32 67.4801L226.468 66.956ZM225.572 68.364L226.024 67.4722C223.164 66.0211 220.735 64.2888 218.727 62.2809L218.02 62.988L217.313 63.6951C219.486 65.8685 222.092 67.7203 225.12 69.2558L225.572 68.364ZM218.02 62.988L218.734 62.2881C216.688 60.2006 214.986 58.06 213.621 55.8674L212.772 56.396L211.923 56.9246C213.374 59.2547 215.17 61.5087 217.306 63.6879L218.02 62.988ZM212.772 56.396L213.625 55.8745C212.242 53.6115 211.162 51.4677 210.376 49.4425L209.444 49.804L208.512 50.1655C209.348 52.3216 210.486 54.5725 211.919 56.9174L212.772 56.396ZM209.444 49.804L210.383 49.4592C209.626 47.4006 209.16 45.7214 208.961 44.4062L207.972 44.556L206.983 44.7058C207.211 46.2066 207.726 48.0261 208.505 50.1488L209.444 49.804ZM207.972 44.556L206.987 44.3822C206.748 45.7364 206.221 47.4344 205.382 49.4901L206.308 49.868L207.234 50.2459C208.101 48.1203 208.684 46.2769 208.957 44.7298L207.972 44.556ZM206.308 49.868L205.385 49.4834C204.564 51.4542 203.384 53.5696 201.835 55.8308L202.66 56.396L203.485 56.9612C205.093 54.6144 206.346 52.3778 207.231 50.2526L206.308 49.868ZM202.66 56.396L201.84 55.8236C200.317 58.0053 198.35 60.142 195.927 62.2306L196.58 62.988L197.233 63.7454C199.76 61.5673 201.846 59.3093 203.48 56.9684L202.66 56.396ZM196.58 62.988L195.928 62.2297C193.583 64.2461 190.748 65.9881 187.411 67.4478L187.812 68.364L188.213 69.2802C191.703 67.7533 194.713 65.9113 197.232 63.7463L196.58 62.988ZM187.812 68.364L188.706 67.9168C188.497 67.4979 188.179 67.0165 187.78 66.484L186.98 67.084L186.18 67.684C186.549 68.1755 186.786 68.5474 186.918 68.8112L187.812 68.364ZM186.98 67.084L187.789 66.4958C187.444 66.0222 187.079 65.5275 186.692 65.012L185.892 65.612L185.092 66.212C185.473 66.7205 185.833 67.2072 186.171 67.6722L186.98 67.084ZM185.892 65.612L186.701 65.0238C186.327 64.5101 185.937 64.0665 185.527 63.7074L184.868 64.46L184.209 65.2126C184.482 65.4508 184.774 65.7752 185.083 66.2002L185.892 65.612ZM184.868 64.46L185.265 65.378C188.791 63.8543 191.819 62.059 194.336 59.9835L193.7 59.212L193.064 58.4405C190.717 60.3757 187.857 62.079 184.471 63.542L184.868 64.46ZM193.7 59.212L194.338 59.9824C196.87 57.8868 198.941 55.6877 200.538 53.3812L199.716 52.812L198.894 52.2428C197.419 54.3736 195.48 56.4412 193.062 58.4416L193.7 59.212ZM199.716 52.812L200.543 53.3739C202.114 51.0611 203.346 48.7768 204.231 46.5211L203.3 46.156L202.369 45.7909C201.547 47.8872 200.39 50.0402 198.889 52.2501L199.716 52.812ZM203.3 46.156L204.225 46.5367C205.141 44.3104 205.764 42.2526 206.078 40.3684L205.092 40.204L204.106 40.0396C203.822 41.7394 203.251 43.6496 202.375 45.7752L203.3 46.156ZM205.092 40.204L206.074 40.3911C206.42 38.5742 206.604 37.0742 206.604 35.916H205.604H204.604C204.604 36.8911 204.446 38.2498 204.11 40.0169L205.092 40.204ZM205.604 35.916H206.604V23.5H205.604H204.604V35.916H205.604ZM205.604 23.5V24.5H208.036V23.5V22.5H205.604V23.5ZM223.076 20.94V21.94H223.844V20.94V19.94H223.076V20.94ZM223.844 20.94L224.069 21.9144L224.901 21.7224L224.676 20.748L224.451 19.7736L223.619 19.9656L223.844 20.94ZM224.676 20.748L224.425 21.716L227.881 22.612L228.132 21.644L228.383 20.676L224.927 19.78L224.676 20.748ZM228.132 21.644L227.162 21.4015C226.652 23.4416 226.099 25.5462 225.504 27.7153L226.468 27.98L227.432 28.2447C228.032 26.0618 228.588 23.9424 229.102 21.8865L228.132 21.644ZM226.468 27.98L225.505 27.7104C224.911 29.8311 224.297 31.8656 223.661 33.814L224.612 34.124L225.563 34.434C226.207 32.4571 226.83 30.3955 227.431 28.2496L226.468 27.98ZM224.612 34.124L223.661 33.814C223.026 35.7614 222.415 37.4682 221.828 38.9366L222.756 39.308L223.684 39.6794C224.292 38.1611 224.918 36.4119 225.563 34.434L224.612 34.124ZM222.756 39.308L223.023 38.3443L218.863 37.1923L218.596 38.156L218.329 39.1197L222.489 40.2717L222.756 39.308ZM218.596 38.156L219.532 38.5071C220.054 37.1163 220.594 35.4948 221.153 33.6454L220.196 33.356L219.239 33.0666C218.689 34.8865 218.162 36.465 217.66 37.8049L218.596 38.156ZM220.196 33.356L221.155 33.6393C221.715 31.7427 222.232 29.7829 222.706 27.7599L221.732 27.532L220.758 27.3041C220.293 29.2918 219.786 31.2146 219.237 33.0727L220.196 33.356ZM221.732 27.532L222.701 27.7794C223.216 25.7614 223.668 23.8271 224.055 21.9769L223.076 21.772L222.097 21.5671C221.716 23.3862 221.272 25.292 220.763 27.2846L221.732 27.532ZM223.076 21.772H224.076V20.94H223.076H222.076V21.772H223.076ZM173.796 15.564V16.564H189.092V15.564V14.564H173.796V15.564ZM189.092 15.564H188.092V50.508H189.092H190.092V15.564H189.092ZM189.092 50.508V49.508H173.796V50.508V51.508H189.092V50.508ZM173.796 50.508H174.796V46.028H173.796H172.796V50.508H173.796ZM173.796 46.028V47.028H184.74V46.028V45.028H173.796V46.028ZM184.74 46.028H185.74V20.044H184.74H183.74V46.028H184.74ZM184.74 20.044V19.044H173.796V20.044V21.044H184.74V20.044ZM173.796 20.044H174.796V15.564H173.796H172.796V20.044H173.796ZM171.3 15.564V16.564H175.652V15.564V14.564H171.3V15.564ZM175.652 15.564H174.652V56.652H175.652H176.652V15.564H175.652ZM175.652 56.652V55.652H171.3V56.652V57.652H175.652V56.652ZM171.3 56.652H172.3V15.564H171.3H170.3V56.652H171.3Z" fill="black" mask="url(#path-8-outside-1_4011_10)"/>
</svg>
