<svg width="332" height="505" viewBox="0 0 332 505" fill="none" xmlns="http://www.w3.org/2000/svg">
<path d="M193.503 495.504C170.157 511.816 140.503 495.504 140.503 495.504L127.003 421.504C65.0031 340.504 2.00312 311.504 1.5031 210.504C1.00309 109.504 60.9986 2.2698 164.503 1.50438C268.611 0.73451 332.503 101.504 330.003 210.504C327.503 319.504 262.503 337.004 208.003 421.504L193.503 495.504Z" fill="#4E3EC5" fill-opacity="0.3" stroke="black" stroke-width="3"/>
<circle cx="109.503" cy="139.004" r="31" fill="white" stroke="black" stroke-width="3"/>
<circle cx="86.5031" cy="271.004" r="39" fill="white" stroke="black" stroke-width="3"/>
<circle cx="270.503" cy="438.004" r="39" fill="white" stroke="black" stroke-width="3"/>
<circle cx="63.5031" cy="438.004" r="39" fill="white" stroke="black" stroke-width="3"/>
<circle cx="247.503" cy="271.004" r="39" fill="white" stroke="black" stroke-width="3"/>
<circle cx="224.503" cy="139.004" r="31" fill="white" stroke="black" stroke-width="3"/>
<mask id="path-8-outside-1_4011_10" maskUnits="userSpaceOnUse" x="104.5" y="8.5" width="126" height="62" fill="black">
<rect fill="white" x="104.5" y="8.5" width="126" height="62"/>
<path d="M105.828 62.668H163.236V66.572H105.828V62.668ZM106.212 21.068H162.916V25.036H106.212V21.068ZM110.628 53.26H159.204V57.1H110.628V53.26ZM131.876 14.604H136.676V64.524H131.876V14.604ZM154.148 10.124L156.708 13.836C153.849 14.348 150.607 14.8173 146.98 15.244C143.396 15.628 139.62 15.9693 135.652 16.268C131.684 16.524 127.695 16.7587 123.684 16.972C119.673 17.1427 115.791 17.2493 112.036 17.292C112.036 16.7373 111.908 16.0973 111.652 15.372C111.439 14.604 111.225 13.9853 111.012 13.516C114.724 13.388 118.564 13.2387 122.532 13.068C126.543 12.8547 130.468 12.62 134.308 12.364C138.191 12.0653 141.817 11.724 145.188 11.34C148.601 10.956 151.588 10.5507 154.148 10.124ZM117.348 40.46V45.324H151.908V40.46H117.348ZM117.348 32.396V37.196H151.908V32.396H117.348ZM112.676 28.94H156.772V48.844H112.676V28.94ZM197.412 20.94H224.548V25.548H197.412V20.94ZM197.732 9.804L202.788 10.7C202.063 14.4547 201.167 18.124 200.1 21.708C199.033 25.2493 197.839 28.556 196.516 31.628C195.236 34.7 193.785 37.388 192.164 39.692C191.865 39.436 191.439 39.1373 190.884 38.796C190.372 38.4547 189.817 38.1133 189.22 37.772C188.665 37.4307 188.153 37.1747 187.684 37.004C189.305 34.828 190.756 32.2893 192.036 29.388C193.316 26.4867 194.425 23.372 195.364 20.044C196.345 16.6733 197.135 13.26 197.732 9.804ZM208.036 23.5H210.404V35.852C210.404 36.9187 210.553 38.348 210.852 40.14C211.151 41.8893 211.663 43.852 212.388 46.028C213.156 48.204 214.223 50.4013 215.588 52.62C216.953 54.8387 218.703 56.9507 220.836 58.956C223.012 60.9613 225.615 62.6893 228.644 64.14C228.345 64.4813 228.004 64.908 227.62 65.42C227.236 65.932 226.852 66.444 226.468 66.956C226.127 67.5107 225.828 67.98 225.572 68.364C222.628 66.8707 220.111 65.0787 218.02 62.988C215.929 60.8547 214.18 58.6573 212.772 56.396C211.364 54.092 210.255 51.8947 209.444 49.804C208.676 47.7133 208.185 45.964 207.972 44.556C207.716 46.0067 207.161 47.7773 206.308 49.868C205.455 51.916 204.239 54.092 202.66 56.396C201.081 58.6573 199.055 60.8547 196.58 62.988C194.148 65.0787 191.225 66.8707 187.812 68.364C187.641 68.0227 187.364 67.596 186.98 67.084C186.639 66.6147 186.276 66.124 185.892 65.612C185.551 65.1427 185.209 64.7587 184.868 64.46C188.324 62.9667 191.268 61.2173 193.7 59.212C196.175 57.164 198.18 55.0307 199.716 52.812C201.252 50.5507 202.447 48.332 203.3 46.156C204.196 43.98 204.793 41.996 205.092 40.204C205.433 38.412 205.604 36.9827 205.604 35.916V23.5H208.036ZM223.076 20.94H223.844L224.676 20.748L228.132 21.644C227.62 23.692 227.065 25.804 226.468 27.98C225.871 30.1133 225.252 32.1613 224.612 34.124C223.972 36.0867 223.353 37.8147 222.756 39.308L218.596 38.156C219.108 36.7907 219.641 35.1907 220.196 33.356C220.751 31.4787 221.263 29.5373 221.732 27.532C222.244 25.5267 222.692 23.6067 223.076 21.772V20.94ZM173.796 15.564H189.092V50.508H173.796V46.028H184.74V20.044H173.796V15.564ZM171.3 15.564H175.652V56.652H171.3V15.564Z"/>
</mask>
<path d="M105.828 62.668H163.236V66.572H105.828V62.668ZM106.212 21.068H162.916V25.036H106.212V21.068ZM110.628 53.26H159.204V57.1H110.628V53.26ZM131.876 14.604H136.676V64.524H131.876V14.604ZM154.148 10.124L156.708 13.836C153.849 14.348 150.607 14.8173 146.98 15.244C143.396 15.628 139.62 15.9693 135.652 16.268C131.684 16.524 127.695 16.7587 123.684 16.972C119.673 17.1427 115.791 17.2493 112.036 17.292C112.036 16.7373 111.908 16.0973 111.652 15.372C111.439 14.604 111.225 13.9853 111.012 13.516C114.724 13.388 118.564 13.2387 122.532 13.068C126.543 12.8547 130.468 12.62 134.308 12.364C138.191 12.0653 141.817 11.724 145.188 11.34C148.601 10.956 151.588 10.5507 154.148 10.124ZM117.348 40.46V45.324H151.908V40.46H117.348ZM117.348 32.396V37.196H151.908V32.396H117.348ZM112.676 28.94H156.772V48.844H112.676V28.94ZM197.412 20.94H224.548V25.548H197.412V20.94ZM197.732 9.804L202.788 10.7C202.063 14.4547 201.167 18.124 200.1 21.708C199.033 25.2493 197.839 28.556 196.516 31.628C195.236 34.7 193.785 37.388 192.164 39.692C191.865 39.436 191.439 39.1373 190.884 38.796C190.372 38.4547 189.817 38.1133 189.22 37.772C188.665 37.4307 188.153 37.1747 187.684 37.004C189.305 34.828 190.756 32.2893 192.036 29.388C193.316 26.4867 194.425 23.372 195.364 20.044C196.345 16.6733 197.135 13.26 197.732 9.804ZM208.036 23.5H210.404V35.852C210.404 36.9187 210.553 38.348 210.852 40.14C211.151 41.8893 211.663 43.852 212.388 46.028C213.156 48.204 214.223 50.4013 215.588 52.62C216.953 54.8387 218.703 56.9507 220.836 58.956C223.012 60.9613 225.615 62.6893 228.644 64.14C228.345 64.4813 228.004 64.908 227.62 65.42C227.236 65.932 226.852 66.444 226.468 66.956C226.127 67.5107 225.828 67.98 225.572 68.364C222.628 66.8707 220.111 65.0787 218.02 62.988C215.929 60.8547 214.18 58.6573 212.772 56.396C211.364 54.092 210.255 51.8947 209.444 49.804C208.676 47.7133 208.185 45.964 207.972 44.556C207.716 46.0067 207.161 47.7773 206.308 49.868C205.455 51.916 204.239 54.092 202.66 56.396C201.081 58.6573 199.055 60.8547 196.58 62.988C194.148 65.0787 191.225 66.8707 187.812 68.364C187.641 68.0227 187.364 67.596 186.98 67.084C186.639 66.6147 186.276 66.124 185.892 65.612C185.551 65.1427 185.209 64.7587 184.868 64.46C188.324 62.9667 191.268 61.2173 193.7 59.212C196.175 57.164 198.18 55.0307 199.716 52.812C201.252 50.5507 202.447 48.332 203.3 46.156C204.196 43.98 204.793 41.996 205.092 40.204C205.433 38.412 205.604 36.9827 205.604 35.916V23.5H208.036ZM223.076 20.94H223.844L224.676 20.748L228.132 21.644C227.62 23.692 227.065 25.804 226.468 27.98C225.871 30.1133 225.252 32.1613 224.612 34.124C223.972 36.0867 223.353 37.8147 222.756 39.308L218.596 38.156C219.108 36.7907 219.641 35.1907 220.196 33.356C220.751 31.4787 221.263 29.5373 221.732 27.532C222.244 25.5267 222.692 23.6067 223.076 21.772V20.94ZM173.796 15.564H189.092V50.508H173.796V46.028H184.74V20.044H173.796V15.564ZM171.3 15.564H175.652V56.652H171.3V15.564Z" fill="black"/>
<path d="M105.828 62.668V61.668H104.828V62.668H105.828ZM163.236 62.668H164.236V61.668H163.236V62.668ZM163.236 66.572V67.572H164.236V66.572H163.236ZM105.828 66.572H104.828V67.572H105.828V66.572ZM106.212 21.068V20.068H105.212V21.068H106.212ZM162.916 21.068H163.916V20.068H162.916V21.068ZM162.916 25.036V26.036H163.916V25.036H162.916ZM106.212 25.036H105.212V26.036H106.212V25.036ZM110.628 53.26V52.26H109.628V53.26H110.628ZM159.204 53.26H160.204V52.26H159.204V53.26ZM159.204 57.1V58.1H160.204V57.1H159.204ZM110.628 57.1H109.628V58.1H110.628V57.1ZM131.876 14.604V13.604H130.876V14.604H131.876ZM136.676 14.604H137.676V13.604H136.676V14.604ZM136.676 64.524V65.524H137.676V64.524H136.676ZM131.876 64.524H130.876V65.524H131.876V64.524ZM154.148 10.124L154.971 9.55626L154.61 9.03313L153.984 9.1376L154.148 10.124ZM156.708 13.836L156.884 14.8203L158.413 14.5466L157.531 13.2683L156.708 13.836ZM146.98 15.244L147.087 16.2384L147.097 16.2371L146.98 15.244ZM135.652 16.268L135.716 17.266L135.727 17.2652L135.652 16.268ZM123.684 16.972L123.727 17.9711L123.737 17.9706L123.684 16.972ZM112.036 17.292H111.036V18.3034L112.047 18.2919L112.036 17.292ZM111.652 15.372L110.688 15.6396L110.698 15.6726L110.709 15.7048L111.652 15.372ZM111.012 13.516L110.978 12.5166L109.483 12.5681L110.102 13.9298L111.012 13.516ZM122.532 13.068L122.575 14.0671L122.585 14.0666L122.532 13.068ZM134.308 12.364L134.375 13.3618L134.385 13.3611L134.308 12.364ZM145.188 11.34L145.076 10.3463L145.075 10.3464L145.188 11.34ZM117.348 40.46V39.46H116.348V40.46H117.348ZM117.348 45.324H116.348V46.324H117.348V45.324ZM151.908 45.324V46.324H152.908V45.324H151.908ZM151.908 40.46H152.908V39.46H151.908V40.46ZM117.348 32.396V31.396H116.348V32.396H117.348ZM117.348 37.196H116.348V38.196H117.348V37.196ZM151.908 37.196V38.196H152.908V37.196H151.908ZM151.908 32.396H152.908V31.396H151.908V32.396ZM112.676 28.94V27.94H111.676V28.94H112.676ZM156.772 28.94H157.772V27.94H156.772V28.94ZM156.772 48.844V49.844H157.772V48.844H156.772ZM112.676 48.844H111.676V49.844H112.676V48.844ZM105.828 62.668V63.668H163.236V62.668V61.668H105.828V62.668ZM163.236 62.668H162.236V66.572H163.236H164.236V62.668H163.236ZM163.236 66.572V65.572H105.828V66.572V67.572H163.236V66.572ZM105.828 66.572H106.828V62.668H105.828H104.828V66.572H105.828ZM106.212 21.068V22.068H162.916V21.068V20.068H106.212V21.068ZM162.916 21.068H161.916V25.036H162.916H163.916V21.068H162.916ZM162.916 25.036V24.036H106.212V25.036V26.036H162.916V25.036ZM106.212 25.036H107.212V21.068H106.212H105.212V25.036H106.212ZM110.628 53.26V54.26H159.204V53.26V52.26H110.628V53.26ZM159.204 53.26H158.204V57.1H159.204H160.204V53.26H159.204ZM159.204 57.1V56.1H110.628V57.1V58.1H159.204V57.1ZM110.628 57.1H111.628V53.26H110.628H109.628V57.1H110.628ZM131.876 14.604V15.604H136.676V14.604V13.604H131.876V14.604ZM136.676 14.604H135.676V64.524H136.676H137.676V14.604H136.676ZM136.676 64.524V63.524H131.876V64.524V65.524H136.676V64.524ZM131.876 64.524H132.876V14.604H131.876H130.876V64.524H131.876ZM154.148 10.124L153.325 10.6917L155.885 14.4037L156.708 13.836L157.531 13.2683L154.971 9.55626L154.148 10.124ZM156.708 13.836L156.532 12.8517C153.697 13.3594 150.475 13.826 146.863 14.2509L146.98 15.244L147.097 16.2371C150.739 15.8087 154.002 15.3366 156.884 14.8203L156.708 13.836ZM146.98 15.244L146.873 14.2497C143.301 14.6325 139.535 14.9729 135.577 15.2708L135.652 16.268L135.727 17.2652C139.704 16.9658 143.491 16.6235 147.087 16.2383L146.98 15.244ZM135.652 16.268L135.588 15.2701C131.623 15.5258 127.638 15.7603 123.631 15.9734L123.684 16.972L123.737 17.9706C127.752 17.7571 131.745 17.5222 135.716 17.2659L135.652 16.268ZM123.684 16.972L123.641 15.9729C119.64 16.1432 115.768 16.2495 112.025 16.2921L112.036 17.292L112.047 18.2919C115.813 18.2491 119.706 18.1422 123.727 17.9711L123.684 16.972ZM112.036 17.292H113.036C113.036 16.5895 112.875 15.8332 112.595 15.0392L111.652 15.372L110.709 15.7048C110.941 16.3615 111.036 16.8852 111.036 17.292H112.036ZM111.652 15.372L112.616 15.1044C112.395 14.3102 112.165 13.637 111.922 13.1022L111.012 13.516L110.102 13.9298C110.285 14.3337 110.482 14.8978 110.688 15.6396L111.652 15.372ZM111.012 13.516L111.046 14.5154C114.761 14.3873 118.604 14.2379 122.575 14.0671L122.532 13.068L122.489 12.0689C118.524 12.2395 114.687 12.3887 110.978 12.5166L111.012 13.516ZM122.532 13.068L122.585 14.0666C126.6 13.853 130.53 13.6181 134.375 13.3618L134.308 12.364L134.241 11.3662C130.406 11.6219 126.485 11.8563 122.479 12.0694L122.532 13.068ZM134.308 12.364L134.385 13.3611C138.278 13.0616 141.917 12.7191 145.301 12.3336L145.188 11.34L145.075 10.3464C141.718 10.7289 138.104 11.0691 134.231 11.3669L134.308 12.364ZM145.188 11.34L145.3 12.3337C148.725 11.9483 151.73 11.5407 154.312 11.1104L154.148 10.124L153.984 9.1376C151.446 9.5606 148.477 9.96365 145.076 10.3463L145.188 11.34ZM117.348 40.46H116.348V45.324H117.348H118.348V40.46H117.348ZM117.348 45.324V46.324H151.908V45.324V44.324H117.348V45.324ZM151.908 45.324H152.908V40.46H151.908H150.908V45.324H151.908ZM151.908 40.46V39.46H117.348V40.46V41.46H151.908V40.46ZM117.348 32.396H116.348V37.196H117.348H118.348V32.396H117.348ZM117.348 37.196V38.196H151.908V37.196V36.196H117.348V37.196ZM151.908 37.196H152.908V32.396H151.908H150.908V37.196H151.908ZM151.908 32.396V31.396H117.348V32.396V33.396H151.908V32.396ZM112.676 28.94V29.94H156.772V28.94V27.94H112.676V28.94ZM156.772 28.94H155.772V48.844H156.772H157.772V28.94H156.772ZM156.772 48.844V47.844H112.676V48.844V49.844H156.772V48.844ZM112.676 48.844H113.676V28.94H112.676H111.676V48.844H112.676ZM197.412 20.94V19.94H196.412V20.94H197.412ZM224.548 20.94H225.548V19.94H224.548V20.94ZM224.548 25.548V26.548H225.548V25.548H224.548ZM197.412 25.548H196.412V26.548H197.412V25.548ZM197.732 9.804L197.906 8.81934L196.918 8.6441L196.747 9.63368L197.732 9.804ZM202.788 10.7L203.77 10.8897L203.962 9.89255L202.962 9.71534L202.788 10.7ZM200.1 21.708L201.058 21.9964L201.058 21.9932L200.1 21.708ZM196.516 31.628L195.597 31.2325L195.593 31.2434L196.516 31.628ZM192.164 39.692L191.513 40.4513L192.349 41.1673L192.982 40.2675L192.164 39.692ZM190.884 38.796L190.329 39.6281L190.344 39.6381L190.36 39.6477L190.884 38.796ZM189.22 37.772L188.696 38.6237L188.71 38.6322L188.724 38.6402L189.22 37.772ZM187.684 37.004L186.882 36.4065L186.079 37.4844L187.342 37.9438L187.684 37.004ZM192.036 29.388L191.121 28.9844V28.9844L192.036 29.388ZM195.364 20.044L194.404 19.7645L194.402 19.7725L195.364 20.044ZM210.404 23.5H211.404V22.5H210.404V23.5ZM210.852 40.14L209.866 40.3044L209.866 40.3083L210.852 40.14ZM212.388 46.028L211.439 46.3442L211.442 46.3525L211.445 46.3608L212.388 46.028ZM215.588 52.62L214.736 53.1441V53.1441L215.588 52.62ZM220.836 58.956L220.151 59.6847L220.158 59.6914L220.836 58.956ZM228.644 64.14L229.397 64.7985L230.264 63.8071L229.076 63.2381L228.644 64.14ZM227.62 65.42L226.82 64.82V64.82L227.62 65.42ZM226.468 66.956L225.668 66.356L225.64 66.3928L225.616 66.4319L226.468 66.956ZM225.572 68.364L225.12 69.2558L225.912 69.6575L226.404 68.9187L225.572 68.364ZM218.02 62.988L217.306 63.688L217.313 63.6951L218.02 62.988ZM212.772 56.396L211.919 56.9175L211.923 56.9246L212.772 56.396ZM209.444 49.804L208.505 50.1488L208.508 50.1572L208.512 50.1655L209.444 49.804ZM207.972 44.556L208.961 44.4062L206.987 44.3822L207.972 44.556ZM206.308 49.868L207.231 50.2526L207.234 50.2459L206.308 49.868ZM202.66 56.396L203.48 56.9684L203.485 56.9612L202.66 56.396ZM196.58 62.988L197.232 63.7463L197.233 63.7454L196.58 62.988ZM187.812 68.364L186.918 68.8112L187.342 69.6609L188.213 69.2802L187.812 68.364ZM186.98 67.084L186.171 67.6722L186.176 67.6781L186.18 67.684L186.98 67.084ZM185.892 65.612L185.083 66.2002L185.088 66.2061L185.092 66.212L185.892 65.612ZM184.868 64.46L184.471 63.542L183.018 64.17L184.209 65.2126L184.868 64.46ZM193.7 59.212L194.336 59.9835L194.338 59.9824L193.7 59.212ZM199.716 52.812L200.538 53.3812L200.543 53.3739L199.716 52.812ZM203.3 46.156L202.375 45.7752L202.372 45.7831L202.369 45.7909L203.3 46.156ZM205.092 40.204L204.11 40.0169L204.108 40.0282L204.106 40.0396L205.092 40.204ZM205.604 23.5V22.5H204.604V23.5H205.604ZM223.076 20.94V19.94H222.076V20.94H223.076ZM223.844 20.94V21.94H223.958L224.069 21.9144L223.844 20.94ZM224.676 20.748L224.927 19.78L224.69 19.7185L224.451 19.7736L224.676 20.748ZM228.132 21.644L229.102 21.8865L229.343 20.9248L228.383 20.676L228.132 21.644ZM226.468 27.98L227.431 28.2496L227.432 28.2447L226.468 27.98ZM224.612 34.124L223.661 33.814V33.814L224.612 34.124ZM222.756 39.308L222.489 40.2717L223.352 40.5107L223.684 39.6794L222.756 39.308ZM218.596 38.156L217.66 37.8049L217.276 38.8281L218.329 39.1197L218.596 38.156ZM220.196 33.356L221.153 33.6454L221.155 33.6393L220.196 33.356ZM221.732 27.532L220.763 27.2846L220.761 27.2943L220.758 27.3041L221.732 27.532ZM223.076 21.772L224.055 21.9769L224.076 21.8755V21.772H223.076ZM173.796 15.564V14.564H172.796V15.564H173.796ZM189.092 15.564H190.092V14.564H189.092V15.564ZM189.092 50.508V51.508H190.092V50.508H189.092ZM173.796 50.508H172.796V51.508H173.796V50.508ZM173.796 46.028V45.028H172.796V46.028H173.796ZM184.74 46.028V47.028H185.74V46.028H184.74ZM184.74 20.044H185.74V19.044H184.74V20.044ZM173.796 20.044H172.796V21.044H173.796V20.044ZM171.3 15.564V14.564H170.3V15.564H171.3ZM175.652 15.564H176.652V14.564H175.652V15.564ZM175.652 56.652V57.652H176.652V56.652H175.652ZM171.3 56.652H170.3V57.652H171.3V56.652ZM197.412 20.94V21.94H224.548V20.94V19.94H197.412V20.94ZM224.548 20.94H223.548V25.548H224.548H225.548V20.94H224.548ZM224.548 25.548V24.548H197.412V25.548V26.548H224.548V25.548ZM197.412 25.548H198.412V20.94H197.412H196.412V25.548H197.412ZM197.732 9.804L197.558 10.7887L202.614 11.6847L202.788 10.7L202.962 9.71534L197.906 8.81934L197.732 9.804ZM202.788 10.7L201.806 10.5103C201.087 14.2335 200.199 17.8709 199.142 21.4227L200.1 21.708L201.058 21.9932C202.135 18.3771 203.038 14.6758 203.77 10.8897L202.788 10.7ZM200.1 21.708L199.142 21.4196C198.086 24.9283 196.904 28.1989 195.598 31.2325L196.516 31.628L197.434 32.0235C198.774 28.9131 199.981 25.5704 201.058 21.9964L200.1 21.708ZM196.516 31.628L195.593 31.2434C194.336 34.2599 192.919 36.8817 191.346 39.1165L192.164 39.692L192.982 40.2675C194.652 37.8943 196.136 35.1401 197.439 32.0126L196.516 31.628ZM192.164 39.692L192.815 38.9327C192.459 38.6279 191.983 38.2978 191.408 37.9443L190.884 38.796L190.36 39.6477C190.895 39.9768 191.272 40.2441 191.513 40.4513L192.164 39.692ZM190.884 38.796L191.439 37.964C190.906 37.6085 190.331 37.2552 189.716 36.9038L189.22 37.772L188.724 38.6402C189.304 38.9715 189.838 39.3008 190.329 39.6281L190.884 38.796ZM189.22 37.772L189.744 36.9203C189.148 36.5536 188.574 36.2637 188.026 36.0642L187.684 37.004L187.342 37.9438C187.732 38.0856 188.183 38.3077 188.696 38.6237L189.22 37.772ZM187.684 37.004L188.486 37.6015C190.159 35.3562 191.646 32.7504 192.951 29.7916L192.036 29.388L191.121 28.9844C189.866 31.8282 188.452 34.2998 186.882 36.4065L187.684 37.004ZM192.036 29.388L192.951 29.7916C194.251 26.8438 195.376 23.6846 196.326 20.3155L195.364 20.044L194.402 19.7725C193.474 23.0594 192.381 26.1296 191.121 28.9844L192.036 29.388ZM195.364 20.044L196.324 20.3235C197.316 16.917 198.114 13.4672 198.717 9.97431L197.732 9.804L196.747 9.63368C196.156 13.0528 195.375 16.4297 194.404 19.7645L195.364 20.044ZM208.036 23.5V24.5H210.404V23.5V22.5H208.036V23.5ZM210.404 23.5H209.404V35.852H210.404H211.404V23.5H210.404ZM210.404 35.852H209.404C209.404 36.9988 209.563 38.4902 209.866 40.3044L210.852 40.14L211.838 39.9756C211.543 38.2058 211.404 36.8385 211.404 35.852H210.404ZM210.852 40.14L209.866 40.3083C210.176 42.1199 210.702 44.1331 211.439 46.3442L212.388 46.028L213.337 45.7118C212.623 43.5709 212.126 41.6588 211.838 39.9717L210.852 40.14ZM212.388 46.028L211.445 46.3608C212.239 48.6115 213.339 50.8727 214.736 53.1441L215.588 52.62L216.44 52.0959C215.107 49.93 214.073 47.7964 213.331 45.6952L212.388 46.028ZM215.588 52.62L214.736 53.1441C216.153 55.4466 217.961 57.6261 220.151 59.6846L220.836 58.956L221.521 58.2274C219.444 56.2752 217.753 54.2307 216.44 52.0959L215.588 52.62ZM220.836 58.956L220.158 59.6914C222.417 61.7725 225.105 63.554 228.212 65.0419L228.644 64.14L229.076 63.2381C226.124 61.8247 223.607 60.1501 221.514 58.2206L220.836 58.956ZM228.644 64.14L227.891 63.4815C227.571 63.8476 227.213 64.2954 226.82 64.82L227.62 65.42L228.42 66.02C228.795 65.5206 229.12 65.115 229.397 64.7985L228.644 64.14ZM227.62 65.42L226.82 64.82C226.436 65.332 226.052 65.844 225.668 66.356L226.468 66.956L227.268 67.556C227.652 67.044 228.036 66.532 228.42 66.02L227.62 65.42ZM226.468 66.956L225.616 66.4319C225.279 66.9801 224.987 67.4385 224.74 67.8093L225.572 68.364L226.404 68.9187C226.669 68.5215 226.974 68.0413 227.32 67.4801L226.468 66.956ZM225.572 68.364L226.024 67.4722C223.164 66.0211 220.735 64.2888 218.727 62.2809L218.02 62.988L217.313 63.6951C219.486 65.8685 222.092 67.7203 225.12 69.2558L225.572 68.364ZM218.02 62.988L218.734 62.2881C216.688 60.2006 214.986 58.06 213.621 55.8674L212.772 56.396L211.923 56.9246C213.374 59.2547 215.17 61.5087 217.306 63.6879L218.02 62.988ZM212.772 56.396L213.625 55.8745C212.242 53.6115 211.162 51.4677 210.376 49.4425L209.444 49.804L208.512 50.1655C209.348 52.3216 210.486 54.5725 211.919 56.9174L212.772 56.396ZM209.444 49.804L210.383 49.4592C209.626 47.4006 209.16 45.7214 208.961 44.4062L207.972 44.556L206.983 44.7058C207.211 46.2066 207.726 48.0261 208.505 50.1488L209.444 49.804ZM207.972 44.556L206.987 44.3822C206.748 45.7364 206.221 47.4344 205.382 49.4901L206.308 49.868L207.234 50.2459C208.101 48.1203 208.684 46.2769 208.957 44.7298L207.972 44.556ZM206.308 49.868L205.385 49.4834C204.564 51.4542 203.384 53.5696 201.835 55.8308L202.66 56.396L203.485 56.9612C205.093 54.6144 206.346 52.3778 207.231 50.2526L206.308 49.868ZM202.66 56.396L201.84 55.8236C200.317 58.0053 198.35 60.142 195.927 62.2306L196.58 62.988L197.233 63.7454C199.76 61.5673 201.846 59.3093 203.48 56.9684L202.66 56.396ZM196.58 62.988L195.928 62.2297C193.583 64.2461 190.748 65.9881 187.411 67.4478L187.812 68.364L188.213 69.2802C191.703 67.7533 194.713 65.9113 197.232 63.7463L196.58 62.988ZM187.812 68.364L188.706 67.9168C188.497 67.4979 188.179 67.0165 187.78 66.484L186.98 67.084L186.18 67.684C186.549 68.1755 186.786 68.5474 186.918 68.8112L187.812 68.364ZM186.98 67.084L187.789 66.4958C187.444 66.0222 187.079 65.5275 186.692 65.012L185.892 65.612L185.092 66.212C185.473 66.7205 185.833 67.2072 186.171 67.6722L186.98 67.084ZM185.892 65.612L186.701 65.0238C186.327 64.5101 185.937 64.0665 185.527 63.7074L184.868 64.46L184.209 65.2126C184.482 65.4508 184.774 65.7752 185.083 66.2002L185.892 65.612ZM184.868 64.46L185.265 65.378C188.791 63.8543 191.819 62.059 194.336 59.9835L193.7 59.212L193.064 58.4405C190.717 60.3757 187.857 62.079 184.471 63.542L184.868 64.46ZM193.7 59.212L194.338 59.9824C196.87 57.8868 198.941 55.6877 200.538 53.3812L199.716 52.812L198.894 52.2428C197.419 54.3736 195.48 56.4412 193.062 58.4416L193.7 59.212ZM199.716 52.812L200.543 53.3739C202.114 51.0611 203.346 48.7768 204.231 46.5211L203.3 46.156L202.369 45.7909C201.547 47.8872 200.39 50.0402 198.889 52.2501L199.716 52.812ZM203.3 46.156L204.225 46.5367C205.141 44.3104 205.764 42.2526 206.078 40.3684L205.092 40.204L204.106 40.0396C203.822 41.7394 203.251 43.6496 202.375 45.7752L203.3 46.156ZM205.092 40.204L206.074 40.3911C206.42 38.5742 206.604 37.0742 206.604 35.916H205.604H204.604C204.604 36.8911 204.446 38.2498 204.11 40.0169L205.092 40.204ZM205.604 35.916H206.604V23.5H205.604H204.604V35.916H205.604ZM205.604 23.5V24.5H208.036V23.5V22.5H205.604V23.5ZM223.076 20.94V21.94H223.844V20.94V19.94H223.076V20.94ZM223.844 20.94L224.069 21.9144L224.901 21.7224L224.676 20.748L224.451 19.7736L223.619 19.9656L223.844 20.94ZM224.676 20.748L224.425 21.716L227.881 22.612L228.132 21.644L228.383 20.676L224.927 19.78L224.676 20.748ZM228.132 21.644L227.162 21.4015C226.652 23.4416 226.099 25.5462 225.504 27.7153L226.468 27.98L227.432 28.2447C228.032 26.0618 228.588 23.9424 229.102 21.8865L228.132 21.644ZM226.468 27.98L225.505 27.7104C224.911 29.8311 224.297 31.8656 223.661 33.814L224.612 34.124L225.563 34.434C226.207 32.4571 226.83 30.3955 227.431 28.2496L226.468 27.98ZM224.612 34.124L223.661 33.814C223.026 35.7614 222.415 37.4682 221.828 38.9366L222.756 39.308L223.684 39.6794C224.292 38.1611 224.918 36.4119 225.563 34.434L224.612 34.124ZM222.756 39.308L223.023 38.3443L218.863 37.1923L218.596 38.156L218.329 39.1197L222.489 40.2717L222.756 39.308ZM218.596 38.156L219.532 38.5071C220.054 37.1163 220.594 35.4948 221.153 33.6454L220.196 33.356L219.239 33.0666C218.689 34.8865 218.162 36.465 217.66 37.8049L218.596 38.156ZM220.196 33.356L221.155 33.6393C221.715 31.7427 222.232 29.7829 222.706 27.7599L221.732 27.532L220.758 27.3041C220.293 29.2918 219.786 31.2146 219.237 33.0727L220.196 33.356ZM221.732 27.532L222.701 27.7794C223.216 25.7614 223.668 23.8271 224.055 21.9769L223.076 21.772L222.097 21.5671C221.716 23.3862 221.272 25.292 220.763 27.2846L221.732 27.532ZM223.076 21.772H224.076V20.94H223.076H222.076V21.772H223.076ZM173.796 15.564V16.564H189.092V15.564V14.564H173.796V15.564ZM189.092 15.564H188.092V50.508H189.092H190.092V15.564H189.092ZM189.092 50.508V49.508H173.796V50.508V51.508H189.092V50.508ZM173.796 50.508H174.796V46.028H173.796H172.796V50.508H173.796ZM173.796 46.028V47.028H184.74V46.028V45.028H173.796V46.028ZM184.74 46.028H185.74V20.044H184.74H183.74V46.028H184.74ZM184.74 20.044V19.044H173.796V20.044V21.044H184.74V20.044ZM173.796 20.044H174.796V15.564H173.796H172.796V20.044H173.796ZM171.3 15.564V16.564H175.652V15.564V14.564H171.3V15.564ZM175.652 15.564H174.652V56.652H175.652H176.652V15.564H175.652ZM175.652 56.652V55.652H171.3V56.652V57.652H175.652V56.652ZM171.3 56.652H172.3V15.564H171.3H170.3V56.652H171.3Z" fill="black" mask="url(#path-8-outside-1_4011_10)"/>
</svg>
